<?xml version="1.0" encoding="utf-8"?>
<!-- Generator: Circuit Diagram, cdlibrary.dll 4.0.0.0 -->
<!DOCTYPE svg PUBLIC "-//W3C//DTD SVG 1.1//EN" "http://www.w3.org/Graphics/SVG/1.1/DTD/svg11.dtd">
<svg version="1.1" width="320" height="300" xmlns="http://www.w3.org/2000/svg">
	<line x1="80" y1="240" x2="280" y2="240" style="stroke:rgb(0, 0, 0);stroke-linecap:square;stroke-width:2" />
	<line x1="80" y1="40" x2="280" y2="40" style="stroke:rgb(0, 0, 0);stroke-linecap:square;stroke-width:2" />
	<line x1="80" y1="40" x2="80" y2="50" style="stroke:rgb(0, 0, 0);stroke-linecap:square;stroke-width:2" />
	<line x1="80" y1="40" x2="80" y2="131" style="stroke:rgb(0, 0, 0);stroke-linecap:square;stroke-width:2" />
	<line x1="70" y1="131" x2="90" y2="131" style="stroke:rgb(0, 0, 0);stroke-linecap:square;stroke-width:2" />
	<line x1="75" y1="137" x2="85" y2="137" style="stroke:rgb(0, 0, 0);stroke-linecap:square;stroke-width:2" />
	<line x1="70" y1="143" x2="90" y2="143" style="stroke:rgb(0, 0, 0);stroke-linecap:square;stroke-width:2" />
	<line x1="75" y1="149" x2="85" y2="149" style="stroke:rgb(0, 0, 0);stroke-linecap:square;stroke-width:2" />
	<line x1="80" y1="149" x2="80" y2="240" style="stroke:rgb(0, 0, 0);stroke-linecap:square;stroke-width:2" />
	<text x="66" y="140" style="font-family:Arial;font-size:12px;text-anchor:end" dominant-baseline="middle" transform="rotate(0, 66, 140)">+1.5V</text>
	<line x1="280" y1="40" x2="280" y2="127" style="stroke:rgb(0, 0, 0);stroke-linecap:square;stroke-width:2" />
	<line x1="280" y1="153" x2="280" y2="240" style="stroke:rgb(0, 0, 0);stroke-linecap:square;stroke-width:2" />
	<ellipse cx="280" cy="140" rx="12" ry="12" style="fill-opacity:0;fill:rgb(0, 0, 0);stroke:rgb(0, 0, 0);stroke-width:2" />
	<text x="280" y="140" style="font-family:Arial;font-size:12px;text-anchor:middle" dominant-baseline="middle" transform="rotate(0, 280, 140)">V</text>
	<line x1="180" y1="140" x2="180" y2="177" style="stroke:rgb(0, 0, 0);stroke-linecap:square;stroke-width:2" />
	<line x1="180" y1="203" x2="180" y2="240" style="stroke:rgb(0, 0, 0);stroke-linecap:square;stroke-width:2" />
	<ellipse cx="180" cy="190" rx="12" ry="12" style="fill-opacity:0;fill:rgb(0, 0, 0);stroke:rgb(0, 0, 0);stroke-width:2" />
	<text x="180" y="190" style="font-family:Arial;font-size:12px;text-anchor:middle" dominant-baseline="middle" transform="rotate(0, 180, 190)">A</text>
	<line x1="80" y1="240" x2="80" y2="258" style="stroke:rgb(0, 0, 0);stroke-linecap:square;stroke-width:2" />
	<line x1="72" y1="258" x2="88" y2="258" style="stroke:rgb(0, 0, 0);stroke-linecap:square;stroke-width:2" />
	<line x1="75" y1="264" x2="85" y2="264" style="stroke:rgb(0, 0, 0);stroke-linecap:square;stroke-width:2" />
	<line x1="78" y1="270" x2="82" y2="270" style="stroke:rgb(0, 0, 0);stroke-linecap:square;stroke-width:2" />
	<line x1="180" y1="40" x2="180" y2="70" style="stroke:rgb(0, 0, 0);stroke-linecap:square;stroke-width:2" />
	<line x1="180" y1="110" x2="180" y2="140" style="stroke:rgb(0, 0, 0);stroke-linecap:square;stroke-width:2" />
	<path d="M 180,70 L 180,72 L 173,75 L 187,81 L 173,87 L 187,93 L 173,99 L 187,105 L 180,108 L 180,110" style="fill-opacity:0;fill:rgb(0, 0, 0);stroke:rgb(0, 0, 0);stroke-linecap:square;stroke-width:2" />
	<text x="156" y="90" style="font-family:Arial;font-size:11px;text-anchor:end" dominant-baseline="middle" transform="rotate(0, 156, 90)">R_L</text>
	<path d="M 180,90 M 163,97 L 197,83 M 195,88 L 197,83 L 192,81" style="fill-opacity:0;fill:rgb(0, 0, 0);stroke:rgb(0, 0, 0);stroke-linecap:square;stroke-width:2" />
	<ellipse cx="80" cy="240" rx="2" ry="2" style="fill-opacity:1;fill:rgb(0, 0, 0);stroke:rgb(0, 0, 0);stroke-width:2" />
	<ellipse cx="180" cy="240" rx="2" ry="2" style="fill-opacity:1;fill:rgb(0, 0, 0);stroke:rgb(0, 0, 0);stroke-width:2" />
	<ellipse cx="80" cy="40" rx="2" ry="2" style="fill-opacity:1;fill:rgb(0, 0, 0);stroke:rgb(0, 0, 0);stroke-width:2" />
	<ellipse cx="180" cy="40" rx="2" ry="2" style="fill-opacity:1;fill:rgb(0, 0, 0);stroke:rgb(0, 0, 0);stroke-width:2" />
</svg>